<svg width="30" height="30" viewBox="0 0 30 30" fill="none" xmlns="http://www.w3.org/2000/svg">
<rect width="30" height="30" rx="5" fill="#8B8B8B"/>
<path d="M14.0163 17.9746C12.4671 17.8372 11.0702 17.5126 9.87425 16.7169C9.72586 16.6179 9.57265 16.5225 9.43723 16.4119C8.91378 15.9843 8.86103 15.4945 9.27524 14.9897C9.62958 14.5578 10.2244 14.4422 10.8427 14.6902C10.9624 14.7383 11.0765 14.7983 11.1857 14.8628C13.4146 16.1655 16.4764 16.2015 18.7136 14.9213C18.9353 14.7768 19.1722 14.6589 19.4468 14.5987C19.9807 14.4821 20.4786 14.6489 20.7652 15.0463C21.0925 15.5002 21.0883 15.9431 20.685 16.2955C20.0663 16.8357 19.3223 17.2265 18.4955 17.4993C17.7138 17.7571 16.8575 17.8869 16.0101 17.973C16.138 18.0914 16.1982 18.1497 16.2782 18.218C17.4289 19.2016 18.5847 20.181 19.7316 21.1675C20.1224 21.5037 20.204 21.9205 19.9889 22.3115C19.7536 22.7388 19.227 23.0199 18.7107 22.9898C18.3835 22.9706 18.1284 22.8321 17.9017 22.6378C17.0334 21.8945 16.1486 21.1649 15.2978 20.4075C15.0502 20.1872 14.9311 20.2289 14.7126 20.4201C13.839 21.1852 12.9512 21.9385 12.0581 22.6875C11.6571 23.0238 11.1799 23.0844 10.7148 22.8923C10.2204 22.6884 9.90586 22.2591 9.93013 21.8277C9.94688 21.5359 10.1156 21.313 10.351 21.113C11.4898 20.1457 12.6255 19.1759 13.7616 18.207C13.8367 18.1425 13.9068 18.0742 14.0163 17.9746Z" fill="white"/>
<path d="M14.9599 14.6048C12.1961 14.5968 9.92983 12.6477 9.94595 10.2929C9.96185 7.91205 12.2296 5.99343 15.0206 6.00002C17.8173 6.00643 20.062 7.95264 20.048 10.3582C20.0338 12.7082 17.7518 14.613 14.9599 14.6048ZM17.4717 10.2986C17.4669 9.12935 16.3723 8.19852 15.0005 8.19746C13.6173 8.19621 12.5128 9.14395 12.5235 10.3239C12.5337 11.4886 13.6378 12.4129 15.0133 12.4086C16.3846 12.4045 17.4763 11.4676 17.4717 10.2986Z" fill="white"/>
</svg>
