<svg width="30" height="30" viewBox="0 0 30 30" fill="none" xmlns="http://www.w3.org/2000/svg">
<rect width="30" height="30" rx="6" fill="#8B8B8B"/>
<path d="M7.26494 15.1924L10.7212 16.6741L12.0591 21.6155C12.1447 21.932 12.4816 22.049 12.7053 21.839L14.6319 20.0351C14.8338 19.8461 15.1215 19.8366 15.3325 20.0126L18.8074 22.9102C19.0467 23.1099 19.3856 22.9594 19.4456 22.6273L21.9912 8.5639C22.0567 8.20119 21.7464 7.89861 21.4457 8.03219L7.26089 14.3171C6.91084 14.4721 6.91389 15.0414 7.26494 15.1924ZM11.8435 15.8854L18.5984 11.107C18.7198 11.0214 18.8447 11.2099 18.7404 11.321L13.1657 17.2727C12.9697 17.4822 12.8433 17.7626 12.8075 18.0669L12.6176 19.6833C12.5925 19.8991 12.3285 19.9205 12.2767 19.7116L11.5463 16.7642C11.4627 16.428 11.5846 16.0689 11.8435 15.8854Z" fill="white"/>
</svg>
