<svg width="30" height="30" viewBox="0 0 30 30" fill="none" xmlns="http://www.w3.org/2000/svg">
<rect width="30" height="30" rx="6" fill="#8B8B8B"/>
<path d="M24.8939 19.8373C24.8697 19.7824 24.8471 19.7369 24.8262 19.7004C24.4792 19.0432 23.8161 18.2365 22.8372 17.2801L22.8166 17.2582L22.8062 17.2475L22.7957 17.2365H22.7852C22.341 16.7911 22.0597 16.4917 21.9419 16.3384C21.7263 16.0463 21.678 15.7507 21.7959 15.4512C21.8791 15.2249 22.1917 14.747 22.733 14.0168C23.0178 13.6299 23.2433 13.3197 23.4098 13.0861C24.6109 11.4069 25.1316 10.3338 24.9719 9.86655L24.9098 9.75735C24.8681 9.69161 24.7606 9.63147 24.5872 9.57662C24.4134 9.52189 24.1914 9.51284 23.9206 9.54931L20.9216 9.5711C20.8731 9.55299 20.8037 9.55468 20.7133 9.57662C20.623 9.59856 20.5779 9.60957 20.5779 9.60957L20.5257 9.63699L20.4843 9.66994C20.4495 9.69173 20.4114 9.73004 20.3697 9.78482C20.3282 9.83939 20.2935 9.90345 20.2658 9.97644C19.9393 10.8598 19.5681 11.6811 19.1515 12.4403C18.8946 12.893 18.6587 13.2854 18.4432 13.6176C18.2281 13.9496 18.0476 14.1943 17.9019 14.3511C17.756 14.5081 17.6244 14.6339 17.5061 14.7289C17.388 14.824 17.2979 14.8641 17.2355 14.8494C17.173 14.8347 17.1141 14.8202 17.0583 14.8056C16.9612 14.7398 16.883 14.6504 16.8241 14.5373C16.765 14.4241 16.7252 14.2817 16.7043 14.1102C16.6836 13.9385 16.6714 13.7908 16.6679 13.6667C16.6646 13.5427 16.6661 13.3673 16.6732 13.141C16.6804 12.9145 16.6836 12.7614 16.6836 12.681C16.6836 12.4036 16.6888 12.1024 16.6991 11.7776C16.7096 11.4527 16.7181 11.1953 16.7252 11.0057C16.7323 10.8158 16.7356 10.615 16.7356 10.4033C16.7356 10.1916 16.7233 10.0255 16.6991 9.90502C16.6752 9.78466 16.6384 9.66783 16.59 9.55457C16.5413 9.44142 16.4701 9.35389 16.3766 9.29176C16.2829 9.2297 16.1664 9.18045 16.0277 9.14386C15.6598 9.05629 15.1912 9.00892 14.6218 9.00156C13.3307 8.98698 12.501 9.07466 12.1331 9.26448C11.9873 9.34469 11.8554 9.45427 11.7374 9.59288C11.6125 9.75355 11.595 9.84124 11.6853 9.85566C12.1018 9.92128 12.3968 10.0783 12.5703 10.3265L12.6329 10.458C12.6815 10.5529 12.7301 10.7209 12.7787 10.9618C12.8273 11.2026 12.8586 11.4691 12.8724 11.761C12.907 12.294 12.907 12.7503 12.8724 13.1298C12.8376 13.5096 12.8048 13.8052 12.7735 14.0169C12.7422 14.2286 12.6953 14.4002 12.6329 14.5315C12.5703 14.6629 12.5287 14.7433 12.5079 14.7724C12.487 14.8016 12.4697 14.8199 12.4559 14.8271C12.3656 14.8635 12.2718 14.882 12.1747 14.882C12.0774 14.882 11.9595 14.8309 11.8206 14.7286C11.6819 14.6263 11.5378 14.4859 11.3885 14.307C11.2393 14.1281 11.0709 13.878 10.8834 13.5568C10.696 13.2357 10.5016 12.8561 10.3003 12.418L10.1338 12.1004C10.0296 11.896 9.88738 11.5985 9.70688 11.208C9.52627 10.8173 9.36663 10.4394 9.22785 10.0744C9.17237 9.92109 9.08904 9.80438 8.97798 9.72406L8.92586 9.69111C8.89121 9.66196 8.83559 9.63101 8.75929 9.59802C8.68288 9.56508 8.60315 9.54145 8.51977 9.52691L5.66657 9.5487C5.37501 9.5487 5.17718 9.61816 5.07302 9.75689L5.03133 9.82252C5.0105 9.85907 5 9.91745 5 9.9978C5 10.0781 5.02083 10.1767 5.06251 10.2934C5.47903 11.3229 5.93198 12.3157 6.42137 13.2721C6.91075 14.2284 7.33602 14.9988 7.69692 15.5825C8.05789 16.1666 8.42582 16.7179 8.80072 17.2361C9.17562 17.7544 9.42378 18.0866 9.5452 18.2326C9.66676 18.3788 9.76224 18.4881 9.83165 18.5611L10.092 18.8239C10.2586 18.9991 10.5033 19.209 10.8261 19.4535C11.149 19.6982 11.5065 19.939 11.8987 20.1765C12.291 20.4136 12.7474 20.607 13.2681 20.7567C13.7887 20.9064 14.2955 20.9665 14.7884 20.9375H15.9859C16.2288 20.9155 16.4128 20.8352 16.5379 20.6966L16.5793 20.6417C16.6072 20.5981 16.6333 20.5304 16.6573 20.4393C16.6817 20.3481 16.6938 20.2475 16.6938 20.1382C16.6867 19.8243 16.7094 19.5414 16.7613 19.2896C16.8132 19.0378 16.8724 18.848 16.9386 18.7202C17.0047 18.5925 17.0793 18.4847 17.1624 18.3973C17.2456 18.3097 17.3049 18.2567 17.3397 18.2384C17.3743 18.2201 17.4019 18.2076 17.4227 18.2001C17.5893 18.1417 17.7854 18.1983 18.0112 18.37C18.2369 18.5416 18.4485 18.7534 18.6465 19.0052C18.8444 19.2572 19.0821 19.5399 19.3597 19.8537C19.6375 20.1677 19.8804 20.4011 20.0886 20.5546L20.2968 20.686C20.4358 20.7737 20.6163 20.854 20.8385 20.927C21.0603 21 21.2546 21.0182 21.4215 20.9818L24.0872 20.938C24.3508 20.938 24.556 20.8921 24.7015 20.801C24.8473 20.7098 24.9339 20.6093 24.9619 20.4999C24.9897 20.3904 24.9912 20.2662 24.9672 20.1274C24.9425 19.9889 24.9181 19.8921 24.8939 19.8373Z" fill="white"/>
</svg>
