<svg width="109" height="24" viewBox="0 0 109 24" fill="none" xmlns="http://www.w3.org/2000/svg">
<path d="M98.8783 23.5001H95.1033V6.5001H98.8783V23.5001ZM108.278 12.2501C108.278 13.5834 108.012 14.7084 107.478 15.6251C106.962 16.5418 106.287 17.2334 105.453 17.7001C104.637 18.1668 103.753 18.4001 102.803 18.4001C101.803 18.4001 100.937 18.1501 100.203 17.6501C99.4867 17.1334 98.9367 16.4168 98.5533 15.5001C98.17 14.5668 97.9783 13.4834 97.9783 12.2501C97.9783 11.0001 98.17 9.91677 98.5533 9.0001C98.9367 8.08343 99.4867 7.3751 100.203 6.8751C100.937 6.35843 101.803 6.1001 102.803 6.1001C103.753 6.1001 104.637 6.33343 105.453 6.8001C106.287 7.26676 106.962 7.95843 107.478 8.8751C108.012 9.7751 108.278 10.9001 108.278 12.2501ZM104.303 12.2501C104.303 11.6501 104.178 11.1418 103.928 10.7251C103.678 10.3084 103.345 9.99176 102.928 9.7751C102.512 9.55843 102.053 9.4501 101.553 9.4501C101.12 9.4501 100.695 9.55843 100.278 9.7751C99.8783 9.9751 99.545 10.2834 99.2783 10.7001C99.0117 11.1168 98.8783 11.6334 98.8783 12.2501C98.8783 12.8668 99.0117 13.3834 99.2783 13.8001C99.545 14.2168 99.8783 14.5334 100.278 14.7501C100.695 14.9501 101.12 15.0501 101.553 15.0501C102.053 15.0501 102.512 14.9418 102.928 14.7251C103.345 14.5084 103.678 14.1918 103.928 13.7751C104.178 13.3584 104.303 12.8501 104.303 12.2501Z" fill="#129D3F"/>
<path d="M84.4547 14.5748C84.4547 14.8415 84.5297 15.0665 84.6797 15.2498C84.8297 15.4165 85.0297 15.5498 85.2797 15.6498C85.5463 15.7331 85.8213 15.7748 86.1047 15.7748C86.5713 15.7748 86.9963 15.6998 87.3797 15.5498C87.7797 15.3998 88.0963 15.1498 88.3297 14.7998C88.563 14.4498 88.6797 13.9665 88.6797 13.3498L89.0797 14.7498C89.0797 15.4831 88.888 16.1165 88.5047 16.6498C88.138 17.1665 87.6297 17.5665 86.9797 17.8498C86.3463 18.1165 85.6297 18.2498 84.8297 18.2498C84.0297 18.2498 83.313 18.1165 82.6797 17.8498C82.0463 17.5665 81.5463 17.1665 81.1797 16.6498C80.8297 16.1165 80.6547 15.4748 80.6547 14.7248C80.6547 13.9581 80.8547 13.2998 81.2547 12.7498C81.6713 12.1998 82.2547 11.7748 83.0047 11.4748C83.7547 11.1748 84.6297 11.0248 85.6297 11.0248C86.213 11.0248 86.763 11.0915 87.2797 11.2248C87.813 11.3415 88.2713 11.4998 88.6547 11.6998C89.0547 11.8831 89.338 12.0665 89.5047 12.2498V14.0248C89.0713 13.7081 88.6213 13.4748 88.1547 13.3248C87.7047 13.1581 87.1547 13.0748 86.5047 13.0748C86.0713 13.0748 85.6963 13.1415 85.3797 13.2748C85.0797 13.3915 84.8463 13.5581 84.6797 13.7748C84.5297 13.9915 84.4547 14.2581 84.4547 14.5748ZM82.9797 10.0498L81.7047 7.49981C82.3547 7.18314 83.1297 6.88314 84.0297 6.5998C84.9463 6.31647 85.9213 6.1748 86.9547 6.1748C87.988 6.1748 88.9047 6.32481 89.7047 6.62481C90.5213 6.90814 91.1547 7.32481 91.6047 7.87481C92.0713 8.42481 92.3047 9.0998 92.3047 9.89981V17.9998H88.6797V10.6498C88.6797 10.1665 88.4963 9.78314 88.1297 9.49981C87.7797 9.19981 87.288 9.0498 86.6547 9.0498C86.1047 9.0498 85.5797 9.10814 85.0797 9.22481C84.5963 9.34147 84.1713 9.48314 83.8047 9.64981C83.438 9.79981 83.163 9.93314 82.9797 10.0498Z" fill="#129D3F"/>
<path d="M71.8545 6.5H79.9295V9.625H71.8545V6.5ZM74.0795 7H77.7045V18H74.0795V7Z" fill="#129D3F"/>
<path d="M64.026 12.25C64.026 12.8667 64.1593 13.4 64.426 13.85C64.6926 14.2833 65.0593 14.625 65.526 14.875C66.0093 15.125 66.526 15.25 67.076 15.25C67.5426 15.25 67.9843 15.1833 68.401 15.05C68.8343 14.9 69.226 14.7 69.576 14.45C69.9426 14.2 70.2426 13.8917 70.476 13.525V17.2C70.076 17.5167 69.576 17.775 68.976 17.975C68.376 18.1583 67.6426 18.25 66.776 18.25C65.5093 18.25 64.3676 18 63.351 17.5C62.351 17 61.5593 16.3 60.976 15.4C60.4093 14.5 60.126 13.45 60.126 12.25C60.126 11.0333 60.4093 9.98333 60.976 9.1C61.5593 8.2 62.351 7.5 63.351 7C64.3676 6.5 65.5093 6.25 66.776 6.25C67.6426 6.25 68.376 6.35 68.976 6.55C69.576 6.73333 70.076 6.96667 70.476 7.25V10.95C70.2426 10.5833 69.9343 10.275 69.551 10.025C69.1843 9.775 68.7843 9.58333 68.351 9.45C67.9176 9.31667 67.4926 9.25 67.076 9.25C66.526 9.25 66.0093 9.38333 65.526 9.65C65.0593 9.91667 64.6926 10.275 64.426 10.725C64.1593 11.175 64.026 11.6833 64.026 12.25Z" fill="#129D3F"/>
<path d="M45.4299 12.2501C45.4299 11.0334 45.7132 9.9751 46.2799 9.0751C46.8465 8.1751 47.6299 7.4751 48.6299 6.9751C49.6299 6.4751 50.7549 6.2251 52.0049 6.2251C53.2549 6.2251 54.3715 6.4751 55.3549 6.9751C56.3549 7.4751 57.1382 8.1751 57.7049 9.0751C58.2882 9.9751 58.5799 11.0334 58.5799 12.2501C58.5799 13.4501 58.2882 14.5001 57.7049 15.4001C57.1382 16.3001 56.3549 17.0001 55.3549 17.5001C54.3715 18.0001 53.2549 18.2501 52.0049 18.2501C50.7549 18.2501 49.6299 18.0001 48.6299 17.5001C47.6299 17.0001 46.8465 16.3001 46.2799 15.4001C45.7132 14.5001 45.4299 13.4501 45.4299 12.2501ZM49.3049 12.2501C49.3049 12.8501 49.4299 13.3668 49.6799 13.8001C49.9299 14.2168 50.2549 14.5418 50.6549 14.7751C51.0549 15.0084 51.5049 15.1251 52.0049 15.1251C52.4882 15.1251 52.9299 15.0084 53.3299 14.7751C53.7465 14.5418 54.0715 14.2168 54.3049 13.8001C54.5549 13.3668 54.6799 12.8501 54.6799 12.2501C54.6799 11.6501 54.5549 11.1334 54.3049 10.7001C54.0715 10.2668 53.7465 9.93343 53.3299 9.7001C52.9299 9.46676 52.4882 9.3501 52.0049 9.3501C51.5049 9.3501 51.0549 9.46676 50.6549 9.7001C50.2549 9.93343 49.9299 10.2668 49.6799 10.7001C49.4299 11.1334 49.3049 11.6501 49.3049 12.2501Z" fill="#129D3F"/>
<path d="M40.6992 18L39.1242 10.125L41.0242 5.625L44.4992 18H40.6992ZM35.6242 14.725L41.0242 5.625L41.2742 10.725L36.3742 18.775L35.6242 14.725ZM36.3742 18.775L31.5492 10.725L31.7992 5.625L37.1242 14.725L36.3742 18.775ZM28.3242 18L31.7992 5.625L33.6992 10.125L32.1242 18H28.3242Z" fill="#129D3F"/>
<path d="M16.7443 13.05V10.95H23.2443C23.1777 10.4833 23.0527 10.0917 22.8693 9.775C22.7027 9.45833 22.461 9.21667 22.1443 9.05C21.8443 8.86667 21.4693 8.775 21.0193 8.775C20.5027 8.775 20.0527 8.89167 19.6693 9.125C19.3027 9.34167 19.011 9.66667 18.7943 10.1C18.5777 10.5167 18.4693 11.0333 18.4693 11.65L18.4193 12.25C18.4193 13.0333 18.536 13.6667 18.7693 14.15C19.0193 14.6333 19.3443 14.9833 19.7443 15.2C20.161 15.4167 20.611 15.525 21.0943 15.525C21.561 15.525 21.9693 15.4667 22.3193 15.35C22.686 15.2333 23.0027 15.0667 23.2693 14.85C23.536 14.6167 23.761 14.3417 23.9443 14.025L27.3193 14.85C26.936 15.55 26.4777 16.1583 25.9443 16.675C25.411 17.175 24.7527 17.5667 23.9693 17.85C23.2027 18.1167 22.261 18.25 21.1443 18.25C19.761 18.25 18.5777 17.9917 17.5943 17.475C16.6277 16.9583 15.886 16.25 15.3693 15.35C14.8693 14.4333 14.6193 13.4 14.6193 12.25C14.6193 12.0333 14.6277 11.825 14.6443 11.625C14.661 11.425 14.686 11.225 14.7193 11.025C14.886 10.075 15.2277 9.24167 15.7443 8.525C16.2777 7.80833 16.986 7.25 17.8693 6.85C18.7693 6.45 19.8443 6.25 21.0943 6.25C22.4443 6.25 23.5777 6.48333 24.4943 6.95C25.411 7.41667 26.1027 8.08333 26.5693 8.95C27.0527 9.81667 27.2943 10.8583 27.2943 12.075C27.2943 12.175 27.2943 12.3167 27.2943 12.5C27.2943 12.6667 27.2777 12.85 27.2443 13.05H16.7443Z" fill="#129D3F"/>
<path d="M0.849976 0.5H5.07498V18H0.849976V0.5ZM3.49998 3.975V0.5H6.92498C8.40831 0.5 9.64998 0.733333 10.65 1.2C11.6666 1.65 12.4333 2.3 12.95 3.15C13.4666 4 13.725 5.025 13.725 6.225C13.725 7.39167 13.4666 8.40833 12.95 9.275C12.4333 10.125 11.6666 10.7833 10.65 11.25C9.64998 11.7 8.40831 11.925 6.92498 11.925H3.49998V8.45H6.92498C7.77498 8.45 8.44164 8.25833 8.92498 7.875C9.40831 7.49167 9.64998 6.94167 9.64998 6.225C9.64998 5.49167 9.40831 4.93333 8.92498 4.55C8.44164 4.16667 7.77498 3.975 6.92498 3.975H3.49998Z" fill="#129D3F"/>
</svg>
