<svg width="151" height="33" viewBox="0 0 151 33" fill="none" xmlns="http://www.w3.org/2000/svg">
<path d="M137.83 32.7H132.545V8.9H137.83V32.7ZM150.99 16.95C150.99 18.8167 150.616 20.3917 149.87 21.675C149.146 22.9583 148.201 23.9267 147.035 24.58C145.891 25.2333 144.655 25.56 143.325 25.56C141.925 25.56 140.711 25.21 139.685 24.51C138.681 23.7867 137.911 22.7833 137.375 21.5C136.838 20.1933 136.57 18.6767 136.57 16.95C136.57 15.2 136.838 13.6833 137.375 12.4C137.911 11.1167 138.681 10.125 139.685 9.425C140.711 8.70167 141.925 8.34 143.325 8.34C144.655 8.34 145.891 8.66667 147.035 9.32C148.201 9.97333 149.146 10.9417 149.87 12.225C150.616 13.485 150.99 15.06 150.99 16.95ZM145.425 16.95C145.425 16.11 145.25 15.3983 144.9 14.815C144.55 14.2317 144.083 13.7883 143.5 13.485C142.916 13.1817 142.275 13.03 141.575 13.03C140.968 13.03 140.373 13.1817 139.79 13.485C139.23 13.765 138.763 14.1967 138.39 14.78C138.016 15.3633 137.83 16.0867 137.83 16.95C137.83 17.8133 138.016 18.5367 138.39 19.12C138.763 19.7033 139.23 20.1467 139.79 20.45C140.373 20.73 140.968 20.87 141.575 20.87C142.275 20.87 142.916 20.7183 143.5 20.415C144.083 20.1117 144.55 19.6683 144.9 19.085C145.25 18.5017 145.425 17.79 145.425 16.95Z" fill="white"/>
<path d="M117.637 20.205C117.637 20.5783 117.742 20.8933 117.952 21.15C118.162 21.3833 118.442 21.57 118.792 21.71C119.165 21.8267 119.55 21.885 119.947 21.885C120.6 21.885 121.195 21.78 121.732 21.57C122.292 21.36 122.735 21.01 123.062 20.52C123.388 20.03 123.552 19.3533 123.552 18.49L124.112 20.45C124.112 21.4767 123.843 22.3633 123.307 23.11C122.793 23.8333 122.082 24.3933 121.172 24.79C120.285 25.1633 119.282 25.35 118.162 25.35C117.042 25.35 116.038 25.1633 115.152 24.79C114.265 24.3933 113.565 23.8333 113.052 23.11C112.562 22.3633 112.317 21.465 112.317 20.415C112.317 19.3417 112.597 18.42 113.157 17.65C113.74 16.88 114.557 16.285 115.607 15.865C116.657 15.445 117.882 15.235 119.282 15.235C120.098 15.235 120.868 15.3283 121.592 15.515C122.338 15.6783 122.98 15.9 123.517 16.18C124.077 16.4367 124.473 16.6933 124.707 16.95V19.435C124.1 18.9917 123.47 18.665 122.817 18.455C122.187 18.2217 121.417 18.105 120.507 18.105C119.9 18.105 119.375 18.1983 118.932 18.385C118.512 18.5483 118.185 18.7817 117.952 19.085C117.742 19.3883 117.637 19.7617 117.637 20.205ZM115.572 13.87L113.787 10.3C114.697 9.85667 115.782 9.43667 117.042 9.04C118.325 8.64333 119.69 8.445 121.137 8.445C122.583 8.445 123.867 8.655 124.987 9.075C126.13 9.47167 127.017 10.055 127.647 10.825C128.3 11.595 128.627 12.54 128.627 13.66V25H123.552V14.71C123.552 14.0333 123.295 13.4967 122.782 13.1C122.292 12.68 121.603 12.47 120.717 12.47C119.947 12.47 119.212 12.5517 118.512 12.715C117.835 12.8783 117.24 13.0767 116.727 13.31C116.213 13.52 115.828 13.7067 115.572 13.87Z" fill="white"/>
<path d="M99.9963 8.9H111.301V13.275H99.9963V8.9ZM103.111 9.6H108.186V25H103.111V9.6Z" fill="white"/>
<path d="M89.0364 16.95C89.0364 17.8133 89.223 18.56 89.5964 19.19C89.9697 19.7967 90.483 20.275 91.1364 20.625C91.813 20.975 92.5364 21.15 93.3064 21.15C93.9597 21.15 94.578 21.0567 95.1614 20.87C95.768 20.66 96.3164 20.38 96.8064 20.03C97.3197 19.68 97.7397 19.2483 98.0664 18.735V23.88C97.5064 24.3233 96.8064 24.685 95.9664 24.965C95.1264 25.2217 94.0997 25.35 92.8864 25.35C91.113 25.35 89.5147 25 88.0914 24.3C86.6914 23.6 85.583 22.62 84.7663 21.36C83.973 20.1 83.5764 18.63 83.5764 16.95C83.5764 15.2467 83.973 13.7767 84.7663 12.54C85.583 11.28 86.6914 10.3 88.0914 9.6C89.5147 8.9 91.113 8.55 92.8864 8.55C94.0997 8.55 95.1264 8.69 95.9664 8.97C96.8064 9.22667 97.5064 9.55333 98.0664 9.95V15.13C97.7397 14.6167 97.308 14.185 96.7714 13.835C96.258 13.485 95.698 13.2167 95.0914 13.03C94.4847 12.8433 93.8897 12.75 93.3064 12.75C92.5364 12.75 91.813 12.9367 91.1364 13.31C90.483 13.6833 89.9697 14.185 89.5964 14.815C89.223 15.445 89.0364 16.1567 89.0364 16.95Z" fill="white"/>
<path d="M63.0018 16.95C63.0018 15.2467 63.3985 13.765 64.1918 12.505C64.9852 11.245 66.0818 10.265 67.4818 9.565C68.8818 8.865 70.4568 8.515 72.2068 8.515C73.9568 8.515 75.5202 8.865 76.8968 9.565C78.2968 10.265 79.3935 11.245 80.1868 12.505C81.0035 13.765 81.4118 15.2467 81.4118 16.95C81.4118 18.63 81.0035 20.1 80.1868 21.36C79.3935 22.62 78.2968 23.6 76.8968 24.3C75.5202 25 73.9568 25.35 72.2068 25.35C70.4568 25.35 68.8818 25 67.4818 24.3C66.0818 23.6 64.9852 22.62 64.1918 21.36C63.3985 20.1 63.0018 18.63 63.0018 16.95ZM68.4268 16.95C68.4268 17.79 68.6018 18.5133 68.9518 19.12C69.3018 19.7033 69.7568 20.1583 70.3168 20.485C70.8768 20.8117 71.5068 20.975 72.2068 20.975C72.8835 20.975 73.5018 20.8117 74.0618 20.485C74.6452 20.1583 75.1002 19.7033 75.4268 19.12C75.7768 18.5133 75.9518 17.79 75.9518 16.95C75.9518 16.11 75.7768 15.3867 75.4268 14.78C75.1002 14.1733 74.6452 13.7067 74.0618 13.38C73.5018 13.0533 72.8835 12.89 72.2068 12.89C71.5068 12.89 70.8768 13.0533 70.3168 13.38C69.7568 13.7067 69.3018 14.1733 68.9518 14.78C68.6018 15.3867 68.4268 16.11 68.4268 16.95Z" fill="white"/>
<path d="M56.3789 25L54.1739 13.975L56.8339 7.675L61.6989 25H56.3789ZM49.2739 20.415L56.8339 7.675L57.1839 14.815L50.3239 26.085L49.2739 20.415ZM50.3239 26.085L43.5689 14.815L43.9189 7.675L51.3739 20.415L50.3239 26.085ZM39.0539 25L43.9189 7.675L46.5789 13.975L44.3739 25H39.0539Z" fill="white"/>
<path d="M22.8421 18.07V15.13H31.9421C31.8487 14.4767 31.6737 13.9283 31.4171 13.485C31.1837 13.0417 30.8454 12.7033 30.4021 12.47C29.9821 12.2133 29.4571 12.085 28.8271 12.085C28.1037 12.085 27.4737 12.2483 26.9371 12.575C26.4237 12.8783 26.0154 13.3333 25.7121 13.94C25.4087 14.5233 25.2571 15.2467 25.2571 16.11L25.1871 16.95C25.1871 18.0467 25.3504 18.9333 25.6771 19.61C26.0271 20.2867 26.4821 20.7767 27.0421 21.08C27.6254 21.3833 28.2554 21.535 28.9321 21.535C29.5854 21.535 30.1571 21.4533 30.6471 21.29C31.1604 21.1267 31.6037 20.8933 31.9771 20.59C32.3504 20.2633 32.6654 19.8783 32.9221 19.435L37.6471 20.59C37.1104 21.57 36.4687 22.4217 35.7221 23.145C34.9754 23.845 34.0537 24.3933 32.9571 24.79C31.8837 25.1633 30.5654 25.35 29.0021 25.35C27.0654 25.35 25.4087 24.9883 24.0321 24.265C22.6787 23.5417 21.6404 22.55 20.9171 21.29C20.2171 20.0067 19.8671 18.56 19.8671 16.95C19.8671 16.6467 19.8787 16.355 19.9021 16.075C19.9254 15.795 19.9604 15.515 20.0071 15.235C20.2404 13.905 20.7187 12.7383 21.4421 11.735C22.1887 10.7317 23.1804 9.95 24.4171 9.39C25.6771 8.83 27.1821 8.55 28.9321 8.55C30.8221 8.55 32.4087 8.87667 33.6921 9.53C34.9754 10.1833 35.9437 11.1167 36.5971 12.33C37.2737 13.5433 37.6121 15.0017 37.6121 16.705C37.6121 16.845 37.6121 17.0433 37.6121 17.3C37.6121 17.5333 37.5887 17.79 37.5421 18.07H22.8421Z" fill="white"/>
<path d="M0.590027 0.499998H6.50503V25H0.590027V0.499998ZM4.30003 5.365V0.499998H9.09503C11.1717 0.499998 12.91 0.826665 14.31 1.48C15.7334 2.11 16.8067 3.02 17.53 4.21C18.2534 5.4 18.615 6.835 18.615 8.515C18.615 10.1483 18.2534 11.5717 17.53 12.785C16.8067 13.975 15.7334 14.8967 14.31 15.55C12.91 16.18 11.1717 16.495 9.09503 16.495H4.30003V11.63H9.09503C10.285 11.63 11.2184 11.3617 11.895 10.825C12.5717 10.2883 12.91 9.51833 12.91 8.515C12.91 7.48833 12.5717 6.70666 11.895 6.17C11.2184 5.63333 10.285 5.365 9.09503 5.365H4.30003Z" fill="white"/>
</svg>
